<svg aria-hidden="true" style="position: absolute; width: 0; height: 0; overflow: hidden;" version="1.1" xmlns="http://www.w3.org/2000/svg" xmlns:xlink="http://www.w3.org/1999/xlink">
<defs>
    <symbol id="WeekendPlanner-logo-icon" viewBox="0 0 200 40">
        <path d="M26.241 11.144c0.167-0.493 0.674-0.906 1.299-0.799 0.191-0.021 0.394 0.005 0.596 0.099l0.129 0.069 0.001 0.001c3.467 2.128 5.627 3.965 6.698 5.6 0.545 0.833 0.867 1.704 0.845 2.594-0.024 0.921-0.412 1.691-0.97 2.288-1.039 1.111-2.758 1.732-4.416 2.101-1.525 0.339-3.209 0.507-4.754 0.559l-1.554 6.596-0.012 0.036-0.020 0.061-0.013 0.039-0.016 0.038c-0.2 0.454-0.721 0.82-1.33 0.678s-0.912-0.702-0.888-1.197l0.002-0.041 0.006-0.041 0.010-0.064 0.005-0.037 0.009-0.037 4.348-18.44 0.029-0.103zM26.262 21.13c1.249-0.069 2.539-0.22 3.692-0.476 1.486-0.331 2.533-0.79 3.066-1.282l0.1-0.099c0.208-0.222 0.27-0.404 0.275-0.581 0.005-0.207-0.066-0.579-0.439-1.149-0.681-1.039-2.159-2.426-4.861-4.185l-1.832 7.771z"></path>
        <path d="M24.462 1.9c0.122-0.472 0.621-1.008 1.294-0.887 0 0 0 0 0 0s0.001 0 0.001 0l0.001 0c0.049 0.009 0.1 0.021 0.151 0.037l0.073 0.025c0 0 0.001 0 0.001 0s0 0 0.001 0c0.016 0.006 0.031 0.014 0.046 0.020 8.098 2.547 13.97 10.085 13.97 18.991-0 10.997-8.954 19.912-20 19.912s-20-8.915-20-19.912c0-4.686 1.628-8.996 4.35-12.398 0.051-0.083 0.113-0.161 0.186-0.23 0.011-0.013 0.022-0.027 0.033-0.041 0.002-0.002 0.004-0.002 0.006-0.001s0.004 0.001 0.006-0c0.091-0.077 0.198-0.142 0.32-0.191 0-0 0-0 0.001-0s0-0 0.001-0c0.632-0.251 1.237 0.101 1.467 0.608l0.041 0.103c0 0 0 0 0 0.001s0 0 0 0.001l4.758 14.016c0.376 1.109 1.981 1.020 2.231-0.124l2.263-10.337c0.044-0.278 0.202-0.51 0.405-0.672 0.264-0.217 0.622-0.319 0.994-0.234 0 0 0 0 0.001 0s0 0 0.001 0c0.14 0.032 0.266 0.089 0.378 0.162 0.006 0.004 0.012 0.008 0.019 0.012 0.015 0.010 0.030 0.021 0.044 0.032 0.109 0.080 0.206 0.182 0.281 0.307 0.003 0.005 0.007 0.010 0.010 0.015 0.005 0.009 0.010 0.019 0.015 0.028 0.060 0.105 0.104 0.219 0.129 0.338l1.016 3.209c0.351 1.107 1.939 1.064 2.229-0.060l3.278-12.732zM21.437 22.985c-0 0-0 0-0 0.001s0 0-0 0.001c-0.135 0.521-0.733 1.126-1.519 0.824l-0.001-0.001c-0.202-0.078-0.359-0.199-0.476-0.342-0.101-0.11-0.182-0.246-0.234-0.409l-0.873-2.758c-0.357-1.129-1.986-1.055-2.239 0.101l-2.195 10.027c-0.075 0.342-0.301 0.626-0.599 0.784-0.043 0.024-0.087 0.046-0.134 0.065-0 0-0.001 0-0.001 0s-0 0-0.001 0c-0.674 0.268-1.317-0.151-1.508-0.712-0-0-0-0.001-0-0.001s-0-0-0.001-0.001l-6.175-18.191c-0.309-0.912-1.514-1.051-1.935-0.184-1.158 2.388-1.808 5.066-1.808 7.896 0 10.041 8.176 18.181 18.261 18.181s18.261-8.14 18.261-18.181c0-7.281-4.299-13.564-10.51-16.467-0.628-0.293-1.349 0.079-1.522 0.748l-4.793 18.616z"></path>
        <path d="M49.010 23.807l2.832-11.025h1.484l-0.166 2.842-3.027 11.377h-1.543l0.42-3.193zM46.891 12.781l2.295 10.938 0.205 3.281h-1.641l-3.291-14.219h2.432zM56.539 23.689l2.266-10.908h2.441l-3.291 14.219h-1.641l0.225-3.311zM53.902 12.781l2.803 11.055 0.41 3.164h-1.543l-2.979-11.377-0.156-2.842h1.465zM67.174 27.195c-0.781 0-1.488-0.127-2.119-0.381-0.625-0.261-1.159-0.622-1.602-1.084-0.436-0.462-0.771-1.006-1.006-1.631s-0.352-1.299-0.352-2.021v-0.391c0-0.827 0.12-1.576 0.361-2.246s0.576-1.244 1.006-1.719c0.43-0.482 0.938-0.85 1.523-1.104s1.221-0.381 1.904-0.381c0.755 0 1.416 0.127 1.982 0.381s1.035 0.612 1.406 1.074c0.378 0.456 0.658 0.999 0.84 1.631 0.189 0.631 0.283 1.328 0.283 2.090v1.006h-8.164v-1.689h5.84v-0.186c-0.013-0.423-0.098-0.82-0.254-1.191-0.15-0.371-0.381-0.671-0.693-0.898s-0.729-0.342-1.25-0.342c-0.391 0-0.739 0.085-1.045 0.254-0.299 0.163-0.55 0.4-0.752 0.713s-0.358 0.69-0.469 1.133c-0.104 0.436-0.156 0.928-0.156 1.475v0.391c0 0.462 0.062 0.892 0.186 1.289 0.13 0.391 0.319 0.732 0.566 1.025s0.547 0.524 0.899 0.693c0.351 0.163 0.752 0.244 1.201 0.244 0.566 0 1.071-0.114 1.514-0.342s0.827-0.55 1.152-0.967l1.24 1.201c-0.228 0.332-0.524 0.651-0.889 0.957-0.365 0.299-0.811 0.544-1.338 0.732-0.521 0.189-1.126 0.283-1.816 0.283zM77.896 27.195c-0.781 0-1.488-0.127-2.119-0.381-0.625-0.261-1.159-0.622-1.601-1.084-0.436-0.462-0.771-1.006-1.006-1.631s-0.351-1.299-0.351-2.021v-0.391c0-0.827 0.12-1.576 0.361-2.246s0.576-1.244 1.006-1.719c0.43-0.482 0.938-0.85 1.524-1.104s1.221-0.381 1.904-0.381c0.755 0 1.416 0.127 1.982 0.381s1.035 0.612 1.406 1.074c0.378 0.456 0.657 0.999 0.84 1.631 0.189 0.631 0.283 1.328 0.283 2.090v1.006h-8.164v-1.689h5.84v-0.186c-0.013-0.423-0.098-0.82-0.254-1.191-0.15-0.371-0.381-0.671-0.693-0.898s-0.729-0.342-1.25-0.342c-0.391 0-0.739 0.085-1.045 0.254-0.299 0.163-0.55 0.4-0.752 0.713s-0.358 0.69-0.469 1.133c-0.104 0.436-0.156 0.928-0.156 1.475v0.391c0 0.462 0.062 0.892 0.186 1.289 0.13 0.391 0.319 0.732 0.566 1.025s0.547 0.524 0.898 0.693c0.352 0.163 0.752 0.244 1.201 0.244 0.566 0 1.071-0.114 1.514-0.342s0.827-0.55 1.152-0.967l1.24 1.201c-0.228 0.332-0.524 0.651-0.889 0.957-0.365 0.299-0.811 0.544-1.338 0.732-0.521 0.189-1.126 0.283-1.816 0.283zM86.334 12v15h-2.363v-15h2.363zM92.896 16.434l-4.6 5.098-2.52 2.578-0.615-1.992 1.904-2.354 2.988-3.33h2.842zM90.563 27l-3.428-4.961 1.484-1.65 4.668 6.611h-2.725zM98.854 27.195c-0.781 0-1.488-0.127-2.119-0.381-0.625-0.261-1.159-0.622-1.602-1.084-0.436-0.462-0.771-1.006-1.006-1.631s-0.352-1.299-0.352-2.021v-0.391c0-0.827 0.12-1.576 0.361-2.246s0.576-1.244 1.006-1.719c0.43-0.482 0.938-0.85 1.523-1.104s1.221-0.381 1.904-0.381c0.755 0 1.416 0.127 1.983 0.381s1.035 0.612 1.406 1.074c0.378 0.456 0.658 0.999 0.84 1.631 0.189 0.631 0.283 1.328 0.283 2.090v1.006h-8.164v-1.689h5.84v-0.186c-0.013-0.423-0.098-0.82-0.254-1.191-0.15-0.371-0.381-0.671-0.694-0.898s-0.729-0.342-1.25-0.342c-0.391 0-0.739 0.085-1.045 0.254-0.299 0.163-0.55 0.4-0.752 0.713s-0.358 0.69-0.469 1.133c-0.104 0.436-0.156 0.928-0.156 1.475v0.391c0 0.462 0.062 0.892 0.186 1.289 0.13 0.391 0.319 0.732 0.566 1.025s0.547 0.524 0.899 0.693c0.351 0.163 0.752 0.244 1.201 0.244 0.566 0 1.071-0.114 1.514-0.342s0.827-0.55 1.152-0.967l1.24 1.201c-0.227 0.332-0.524 0.651-0.888 0.957-0.365 0.299-0.811 0.544-1.338 0.732-0.521 0.189-1.126 0.283-1.816 0.283zM107.252 18.689v8.311h-2.354v-10.566h2.217l0.137 2.256zM106.832 21.326l-0.762-0.010c0.007-0.749 0.111-1.436 0.313-2.061 0.208-0.625 0.495-1.162 0.859-1.611 0.371-0.449 0.814-0.794 1.328-1.035 0.515-0.247 1.088-0.371 1.719-0.371 0.508 0 0.967 0.072 1.377 0.215 0.417 0.137 0.772 0.361 1.064 0.674 0.3 0.313 0.528 0.719 0.684 1.221 0.156 0.495 0.234 1.104 0.234 1.826v6.826h-2.363v-6.836c0-0.508-0.075-0.908-0.224-1.201-0.144-0.299-0.355-0.511-0.635-0.635-0.274-0.13-0.615-0.195-1.026-0.195-0.403 0-0.765 0.085-1.084 0.254s-0.589 0.4-0.81 0.693c-0.215 0.293-0.381 0.631-0.498 1.016s-0.176 0.794-0.176 1.231zM122.496 24.813v-12.812h2.363v15h-2.138l-0.225-2.188zM115.621 21.834v-0.205c0-0.801 0.094-1.53 0.283-2.188 0.189-0.664 0.463-1.234 0.821-1.709 0.358-0.482 0.794-0.85 1.308-1.104 0.515-0.26 1.094-0.391 1.738-0.391 0.639 0 1.198 0.124 1.68 0.371s0.892 0.602 1.231 1.064c0.338 0.456 0.608 1.003 0.81 1.641 0.202 0.631 0.345 1.335 0.43 2.109v0.654c-0.085 0.755-0.228 1.445-0.43 2.070s-0.472 1.165-0.81 1.621c-0.339 0.456-0.752 0.807-1.241 1.055-0.481 0.247-1.045 0.371-1.689 0.371-0.638 0-1.214-0.134-1.729-0.4-0.507-0.267-0.94-0.641-1.298-1.123s-0.632-1.048-0.821-1.699c-0.189-0.658-0.283-1.371-0.283-2.139zM117.975 21.629v0.205c0 0.482 0.042 0.931 0.127 1.348 0.091 0.417 0.231 0.784 0.419 1.104 0.189 0.313 0.433 0.56 0.733 0.742 0.306 0.176 0.67 0.264 1.094 0.264 0.534 0 0.973-0.117 1.318-0.351s0.615-0.55 0.811-0.947c0.201-0.404 0.338-0.853 0.41-1.348v-1.768c-0.039-0.384-0.121-0.742-0.244-1.074-0.118-0.332-0.277-0.622-0.479-0.869-0.202-0.254-0.452-0.449-0.752-0.586-0.293-0.143-0.641-0.215-1.045-0.215-0.429 0-0.794 0.091-1.094 0.273-0.299 0.182-0.546 0.433-0.742 0.752-0.189 0.319-0.329 0.69-0.42 1.113s-0.136 0.876-0.136 1.357zM132.955 21.697h-3.701v-1.943h3.701c0.645 0 1.165-0.104 1.563-0.313 0.397-0.208 0.686-0.495 0.869-0.859 0.189-0.371 0.283-0.794 0.283-1.269 0-0.449-0.094-0.869-0.283-1.26-0.183-0.397-0.472-0.716-0.869-0.957-0.398-0.241-0.918-0.361-1.563-0.361h-2.949v12.266h-2.451v-14.219h5.4c1.1 0 2.035 0.195 2.803 0.586 0.775 0.384 1.364 0.918 1.767 1.602 0.404 0.677 0.606 1.452 0.606 2.324 0 0.918-0.202 1.706-0.606 2.363-0.403 0.658-0.992 1.162-1.767 1.514-0.768 0.352-1.703 0.527-2.803 0.527zM142.613 12v15h-2.363v-15h2.363zM151.148 24.881v-5.039c0-0.378-0.068-0.703-0.205-0.977s-0.345-0.485-0.625-0.635c-0.273-0.15-0.618-0.225-1.035-0.225-0.384 0-0.716 0.065-0.996 0.195s-0.498 0.306-0.654 0.527c-0.156 0.221-0.235 0.472-0.235 0.752h-2.343c0-0.417 0.101-0.82 0.302-1.211 0.202-0.391 0.495-0.739 0.879-1.045s0.843-0.547 1.377-0.723c0.534-0.176 1.133-0.264 1.797-0.264 0.794 0 1.498 0.133 2.11 0.4 0.618 0.267 1.103 0.671 1.455 1.211 0.358 0.534 0.537 1.204 0.537 2.012v4.697c0 0.482 0.032 0.915 0.097 1.299 0.072 0.378 0.173 0.706 0.303 0.986v0.156h-2.412c-0.111-0.254-0.199-0.576-0.264-0.967-0.058-0.397-0.088-0.781-0.088-1.152zM151.49 20.574l0.020 1.455h-1.69c-0.436 0-0.82 0.042-1.152 0.127-0.332 0.078-0.609 0.195-0.83 0.352s-0.387 0.345-0.498 0.566c-0.111 0.221-0.166 0.472-0.166 0.752s0.065 0.537 0.195 0.771c0.13 0.228 0.319 0.407 0.567 0.537 0.253 0.13 0.559 0.195 0.918 0.195 0.481 0 0.901-0.098 1.259-0.293 0.365-0.202 0.651-0.446 0.86-0.732 0.208-0.293 0.319-0.57 0.332-0.83l0.761 1.045c-0.078 0.267-0.211 0.553-0.4 0.859s-0.436 0.599-0.742 0.879c-0.3 0.273-0.661 0.498-1.084 0.674-0.417 0.176-0.899 0.264-1.445 0.264-0.691 0-1.306-0.137-1.846-0.41-0.541-0.28-0.964-0.654-1.27-1.123-0.306-0.475-0.459-1.012-0.459-1.611 0-0.56 0.104-1.055 0.313-1.484 0.215-0.436 0.527-0.801 0.937-1.094 0.417-0.293 0.925-0.514 1.524-0.664 0.599-0.156 1.282-0.234 2.051-0.234h1.845zM158.307 18.689v8.311h-2.354v-10.566h2.217l0.137 2.256zM157.887 21.326l-0.762-0.010c0.007-0.749 0.111-1.436 0.313-2.061 0.208-0.625 0.494-1.162 0.859-1.611 0.371-0.449 0.814-0.794 1.328-1.035 0.514-0.247 1.087-0.371 1.719-0.371 0.508 0 0.967 0.072 1.377 0.215 0.416 0.137 0.771 0.361 1.064 0.674 0.3 0.313 0.527 0.719 0.684 1.221 0.156 0.495 0.234 1.104 0.234 1.826v6.826h-2.363v-6.836c0-0.508-0.075-0.908-0.225-1.201-0.143-0.299-0.355-0.511-0.635-0.635-0.273-0.13-0.615-0.195-1.025-0.195-0.404 0-0.765 0.085-1.084 0.254s-0.589 0.4-0.81 0.693c-0.215 0.293-0.381 0.631-0.499 1.016s-0.175 0.794-0.175 1.231zM169.439 18.689v8.311h-2.353v-10.566h2.217l0.136 2.256zM169.020 21.326l-0.762-0.010c0.006-0.749 0.11-1.436 0.312-2.061 0.209-0.625 0.495-1.162 0.86-1.611 0.371-0.449 0.813-0.794 1.328-1.035 0.514-0.247 1.087-0.371 1.719-0.371 0.507 0 0.966 0.072 1.377 0.215 0.416 0.137 0.771 0.361 1.064 0.674 0.299 0.313 0.527 0.719 0.684 1.221 0.156 0.495 0.234 1.104 0.234 1.826v6.826h-2.363v-6.836c0-0.508-0.075-0.908-0.225-1.201-0.143-0.299-0.355-0.511-0.635-0.635-0.273-0.13-0.615-0.195-1.025-0.195-0.404 0-0.765 0.085-1.084 0.254s-0.589 0.4-0.811 0.693c-0.214 0.293-0.381 0.631-0.498 1.016s-0.175 0.794-0.175 1.231zM182.896 27.195c-0.781 0-1.487-0.127-2.119-0.381-0.625-0.261-1.159-0.622-1.601-1.084-0.436-0.462-0.772-1.006-1.006-1.631s-0.352-1.299-0.352-2.021v-0.391c0-0.827 0.121-1.576 0.362-2.246s0.576-1.244 1.006-1.719c0.429-0.482 0.937-0.85 1.523-1.104s1.221-0.381 1.904-0.381c0.755 0 1.416 0.127 1.983 0.381s1.035 0.612 1.406 1.074c0.378 0.456 0.658 0.999 0.84 1.631 0.189 0.631 0.283 1.328 0.283 2.090v1.006h-8.164v-1.689h5.84v-0.186c-0.013-0.423-0.098-0.82-0.254-1.191-0.15-0.371-0.381-0.671-0.693-0.898-0.313-0.228-0.73-0.342-1.25-0.342-0.391 0-0.739 0.085-1.045 0.254-0.3 0.163-0.551 0.4-0.752 0.713-0.202 0.313-0.358 0.69-0.469 1.133-0.104 0.436-0.156 0.928-0.156 1.475v0.391c0 0.462 0.061 0.892 0.185 1.289 0.13 0.391 0.319 0.732 0.567 1.025 0.247 0.293 0.546 0.524 0.898 0.693 0.352 0.163 0.752 0.244 1.201 0.244 0.567 0 1.071-0.114 1.514-0.342s0.827-0.55 1.152-0.967l1.24 1.201c-0.227 0.332-0.524 0.651-0.888 0.957-0.365 0.299-0.811 0.544-1.338 0.732-0.521 0.189-1.126 0.283-1.817 0.283zM191.324 18.445v8.555h-2.353v-10.566h2.246l0.107 2.012zM194.557 16.365l-0.020 2.188c-0.143-0.026-0.299-0.046-0.469-0.059-0.162-0.013-0.325-0.019-0.488-0.019-0.404 0-0.758 0.059-1.064 0.176-0.306 0.111-0.564 0.273-0.772 0.488-0.202 0.208-0.358 0.462-0.469 0.762s-0.175 0.635-0.195 1.006l-0.537 0.039c0-0.664 0.065-1.279 0.195-1.846s0.326-1.064 0.586-1.494c0.267-0.43 0.599-0.765 0.996-1.006 0.404-0.241 0.869-0.361 1.397-0.361 0.143 0 0.296 0.013 0.459 0.039 0.169 0.026 0.296 0.055 0.381 0.088z"></path>
    </symbol>
</defs>
</svg>